<svg width="55" height="38" viewBox="0 0 55 38" fill="none" xmlns="http://www.w3.org/2000/svg">
<ellipse cx="27.3051" cy="18.8812" rx="26.7568" ry="18.855" fill="#F5F5F5"/>
<g clip-path="url(#clip0_97_782)">
<path d="M37.1968 12.755C36.6485 12.642 23.2359 11.7009 18.5254 16.1854C16.4392 18.1721 16.4079 20.8954 18.4209 24.2793C17.9103 25.0262 17.4632 25.8129 17.0989 26.6431C16.9882 26.8953 17.1885 27.1628 17.5461 27.2406C17.6127 27.2552 17.6802 27.262 17.7469 27.262C18.036 27.262 18.3044 27.1304 18.3939 26.9255C21.9841 18.7462 33.6515 14.7891 37.2293 13.7895C37.5775 13.6921 38.0429 12.9295 37.1968 12.755Z" fill="#84829A"/>
<path d="M20.5747 25.303C22.5167 25.8771 24.4583 26.1713 26.2639 26.1713C27.8869 26.1713 29.4004 25.9362 30.7047 25.4594C33.3296 24.4998 34.9336 22.6644 35.3432 20.1509C35.7605 17.5893 36.28 15.9848 36.7134 15.0033C32.8555 16.2573 24.5835 19.5078 20.5747 25.303Z" fill="#84829A"/>
</g>
<defs>
<clipPath id="clip0_97_782">
<rect width="20.8108" height="14.665" fill="white" transform="translate(16.8999 12.5958)"/>
</clipPath>
</defs>
</svg>
