<svg width="126" height="52" viewBox="0 0 126 52" fill="none" xmlns="http://www.w3.org/2000/svg">
<path d="M32.0435 10.24V6H44.3435V10.24H43.1235L42.3035 7.54H39.8235V18.44L41.6635 18.88V20H34.7235V18.88L36.5635 18.44V7.54H34.0635L33.2435 10.24H32.0435ZM45.2504 20V18.94L46.9504 18.54V11.82H45.2504V10.76L48.4504 10H50.0304V11.2C51.0304 10.2 52.2171 9.7 53.5904 9.7C53.6704 9.95333 53.7104 10.2333 53.7104 10.54C53.7104 11.1533 53.6437 11.7267 53.5104 12.26L50.9904 11.84C50.6704 11.9867 50.3504 12.2 50.0304 12.48V18.54L52.1304 18.94V20H45.2504ZM54.5863 17.52C54.5863 16.36 55.0597 15.48 56.0063 14.88C56.9663 14.2667 58.513 13.96 60.6463 13.96V13.36C60.6463 12.96 60.6397 12.6733 60.6263 12.5C60.6263 12.3133 60.5997 12.0933 60.5463 11.84C60.493 11.5867 60.413 11.4067 60.3063 11.3C60.213 11.1933 60.0663 11.1 59.8663 11.02C59.6663 10.9267 59.4197 10.88 59.1263 10.88L56.5863 13.08C55.6797 12.56 55.2263 11.7533 55.2263 10.66L55.8263 10.4C56.0797 10.2933 56.573 10.1533 57.3063 9.98C58.0397 9.79333 58.753 9.7 59.4463 9.7C62.313 9.7 63.7463 10.8467 63.7463 13.14V18.5H65.3063V19.36C65.2397 19.4267 65.1463 19.5133 65.0263 19.62C64.9063 19.7267 64.6463 19.8667 64.2463 20.04C63.8463 20.2133 63.433 20.3 63.0063 20.3C61.993 20.3 61.2397 19.96 60.7463 19.28C59.853 19.96 58.8797 20.3 57.8263 20.3C56.9063 20.3 56.133 20.0667 55.5063 19.6C54.893 19.1333 54.5863 18.44 54.5863 17.52ZM57.8063 17.34C57.8063 17.7267 57.933 18.0333 58.1863 18.26C58.453 18.4867 58.773 18.6 59.1463 18.6C59.7463 18.6 60.2463 18.38 60.6463 17.94V15.2C59.8997 15.2 59.2397 15.4 58.6663 15.8C58.093 16.1867 57.8063 16.7 57.8063 17.34ZM65.0196 11.06V10H71.1396V11.06L69.7796 11.38L71.7996 16.16L73.7796 11.4L72.4596 11.06V10H76.7996V11.06L75.1196 11.5L71.5596 20.14H70.1596L66.4596 11.48L65.0196 11.06ZM77.1277 14.88C77.1277 13.3067 77.5677 12.0533 78.4477 11.12C79.3411 10.1733 80.5477 9.7 82.0677 9.7C83.6144 9.7 84.7811 10.2267 85.5677 11.28C86.3677 12.3333 86.7677 13.6333 86.7677 15.18H80.2077C80.3011 16.1667 80.6544 17.02 81.2677 17.74C81.8811 18.4467 82.6677 18.8 83.6277 18.8C84.3477 18.8 85.1211 18.6467 85.9477 18.34L86.3677 19.48C85.1277 20.0267 83.9144 20.3 82.7277 20.3C81.0077 20.3 79.6411 19.8 78.6277 18.8C77.6277 17.7867 77.1277 16.48 77.1277 14.88ZM80.2077 13.94L83.5877 13.72C83.5877 13.4 83.5677 13.1067 83.5277 12.84C83.4877 12.56 83.3744 12.2267 83.1877 11.84C82.8544 11.28 82.4611 11 82.0077 11C81.4744 11 81.0344 11.2733 80.6877 11.82C80.4877 12.1533 80.3544 12.52 80.2877 12.92C80.2211 13.32 80.1944 13.66 80.2077 13.94ZM87.6262 20V18.94L89.3262 18.54V5.82H87.6262V4.76L90.8262 4H92.4062V18.54L94.1062 18.94V20H87.6262Z" fill="#D36036" fill-opacity="0.99"/>
<path d="M61.266 29.144V26.6H68.646V29.144H67.914L67.422 27.524H65.934V34.064L67.038 34.328V35H62.874V34.328L63.978 34.064V27.524H62.478L61.986 29.144H61.266ZM71.8567 35.18C71.4007 35.18 70.9727 35.1 70.5727 34.94C70.1807 34.78 69.8407 34.56 69.5527 34.28C69.2647 34 69.0367 33.664 68.8687 33.272C68.7007 32.88 68.6167 32.452 68.6167 31.988C68.6167 31.524 68.7007 31.1 68.8687 30.716C69.0367 30.324 69.2647 29.988 69.5527 29.708C69.8407 29.428 70.1807 29.212 70.5727 29.06C70.9727 28.9 71.4007 28.82 71.8567 28.82C72.3127 28.82 72.7367 28.9 73.1287 29.06C73.5207 29.212 73.8607 29.428 74.1487 29.708C74.4447 29.988 74.6727 30.324 74.8327 30.716C75.0007 31.1 75.0847 31.524 75.0847 31.988C75.0847 32.444 75.0007 32.868 74.8327 33.26C74.6727 33.652 74.4447 33.992 74.1487 34.28C73.8607 34.56 73.5207 34.78 73.1287 34.94C72.7367 35.1 72.3127 35.18 71.8567 35.18ZM70.5487 31.988C70.5487 32.74 70.6567 33.332 70.8727 33.764C71.0967 34.188 71.4247 34.4 71.8567 34.4C72.2887 34.4 72.6127 34.188 72.8287 33.764C73.0527 33.332 73.1647 32.74 73.1647 31.988C73.1647 31.244 73.0527 30.66 72.8287 30.236C72.6127 29.812 72.2887 29.6 71.8567 29.6C71.4247 29.6 71.0967 29.812 70.8727 30.236C70.6567 30.66 70.5487 31.244 70.5487 31.988ZM75.5475 29.636V29H78.4155V33.14C78.4155 33.548 78.4635 33.832 78.5595 33.992C78.6635 34.144 78.8675 34.22 79.1715 34.22C79.4035 34.22 79.6435 34.16 79.8915 34.04C80.1395 33.92 80.3395 33.76 80.4915 33.56V29.876L79.7115 29.636V29H82.3515V34.1H83.2875V34.616C83.1115 34.736 82.9675 34.824 82.8555 34.88C82.7515 34.928 82.6315 34.976 82.4955 35.024C82.3675 35.08 82.2315 35.12 82.0875 35.144C81.9515 35.168 81.8235 35.18 81.7035 35.18C81.1275 35.18 80.7235 34.92 80.4915 34.4C79.9235 34.92 79.2275 35.18 78.4035 35.18C77.1795 35.18 76.5675 34.552 76.5675 33.296V29.876L75.5475 29.636ZM83.8034 35V34.364L84.8234 34.124V30.092H83.8034V29.456L85.7234 29H86.6714V29.72C87.2714 29.12 87.9834 28.82 88.8074 28.82C88.8554 28.972 88.8794 29.14 88.8794 29.324C88.8794 29.692 88.8394 30.036 88.7594 30.356L87.2474 30.104C87.0554 30.192 86.8634 30.32 86.6714 30.488V34.124L87.9314 34.364V35H83.8034Z" fill="#783720" fill-opacity="0.7"/>
<g clip-path="url(#clip0_67_41)">
<path d="M44.9997 28.1232C49.5593 36.2674 68.3919 45.0763 80.8398 45.193C94.2962 45.359 101.544 42.2518 115.429 30.1988C115.44 31.5937 115.356 32.7243 115.416 33.7623C115.446 34.9447 115.487 36.1953 115.722 37.345C115.776 37.6856 116.336 38.2251 116.655 38.2442C116.974 38.2634 117.412 37.705 117.461 37.3481C117.866 33.9317 118.168 30.5317 118.511 27.0553C118.594 25.9247 118.156 25.1563 117.229 24.9546C113.717 24.3954 110.194 23.7681 106.641 23.2852C105.838 23.2033 104.957 23.6227 103.929 23.786C105.217 26.5842 107.012 25.9498 108.466 26.4868C109.983 27.0837 111.549 27.3238 113.477 27.8554C109.819 32.3473 105.883 35.417 101.549 37.642C85.6904 45.8887 69.5435 43.7061 53.3441 33.5709C51.2351 32.2301 49.2368 30.5923 47.1682 29.1752C46.549 28.9244 45.9812 28.6655 44.9997 28.1232Z" fill="#DF6951"/>
</g>
<defs>
<clipPath id="clip0_67_41">
<rect width="72.8563" height="23.346" fill="white" transform="matrix(0.987606 -0.156951 -0.156951 -0.987606 48.6641 51.1797)"/>
</clipPath>
</defs>
</svg>
