<svg width="55" height="38" viewBox="0 0 55 38" fill="none" xmlns="http://www.w3.org/2000/svg">
<ellipse cx="27.5761" cy="18.8812" rx="26.7568" ry="18.855" fill="#F5F5F5"/>
<g clip-path="url(#clip0_97_796)">
<path d="M35.7532 11.5487C35.6377 11.5487 35.5238 11.5676 35.4206 11.6039L29.7884 13.5889L23.4196 11.594C23.4092 11.5909 23.3973 11.5903 23.3862 11.5872C23.3575 11.5796 23.3282 11.5733 23.2985 11.5683C23.2689 11.5627 23.2389 11.5583 23.2085 11.5552C23.1482 11.5517 23.0875 11.5517 23.0272 11.5552C22.9969 11.5583 22.9669 11.5627 22.9373 11.5683C22.9075 11.5733 22.8782 11.5796 22.8496 11.5872C22.8384 11.5903 22.8265 11.5908 22.8161 11.594L16.127 13.689C15.8585 13.773 15.6855 13.9606 15.6855 14.1677V25.69C15.6857 25.8672 15.8129 26.0323 16.0237 26.1289C16.2346 26.2256 16.5005 26.2406 16.7305 26.1687L23.1178 24.168L29.5052 26.1687C29.5163 26.1718 29.5282 26.1687 29.5394 26.1734C29.7193 26.2301 29.9259 26.2269 30.102 26.1645C30.1139 26.1609 30.1272 26.1645 30.1391 26.1587L36.0849 24.0638C36.3369 23.975 36.4961 23.7935 36.496 23.595V12.0727C36.4962 11.7834 36.1636 11.5488 35.7532 11.5487ZM22.3746 23.2546L17.172 24.8839V14.5081L22.3746 12.8787V23.2546ZM29.0637 24.8839L23.8611 23.2546V12.8787L29.0637 14.5081V24.8839ZM35.0096 23.2713L30.5502 24.8426V14.4913L35.0096 12.9201V23.2713Z" fill="#84829A"/>
</g>
<defs>
<clipPath id="clip0_97_796">
<rect width="20.8108" height="14.665" fill="white" transform="translate(15.6841 11.547)"/>
</clipPath>
</defs>
</svg>
