<svg width="55" height="38" viewBox="0 0 55 38" fill="none" xmlns="http://www.w3.org/2000/svg">
<ellipse cx="27.4135" cy="18.8812" rx="26.7568" ry="18.855" fill="#F5F5F5"/>
<path d="M35.3567 13.8969L25.9659 20.539C25.8582 20.495 25.745 20.4582 25.6277 20.429L19.4278 18.9503C19.2403 18.9171 19.0739 18.8408 18.955 18.7335C18.8361 18.6261 18.7715 18.4938 18.7715 18.3576C18.7715 18.2213 18.8361 18.089 18.955 17.9816C19.0739 17.8743 19.2403 17.798 19.4278 17.7648L34.8105 13.9092C34.911 13.8851 35.0164 13.8727 35.1226 13.8725C35.202 13.8716 35.2811 13.8799 35.3567 13.8969Z" fill="#84829A"/>
<path d="M35.9549 14.7166L30.4834 25.5687C30.423 25.6952 30.3056 25.8043 30.149 25.8793C29.9924 25.9543 29.8053 25.9912 29.6162 25.9842C29.425 25.9904 29.2362 25.9518 29.0793 25.8744C28.9225 25.797 28.8064 25.6853 28.7491 25.5565L26.6854 21.1876C26.6439 21.1049 26.5917 21.0251 26.5293 20.9492L35.9722 14.3317C36.0255 14.4579 36.0194 14.593 35.9549 14.7166Z" fill="#84829A"/>
</svg>
